<svg width="580" height="326" fill="none" xmlns="http://www.w3.org/2000/svg"><mask id="a" fill="#fff"><path fill-rule="evenodd" clip-rule="evenodd" d="M30 81c28.166 0 51-22.834 51-51 0-13.341 8.981-30 22.323-30H550c16.569 0 30 13.431 30 30v266c0 16.569-13.431 30-30 30H30c-16.569 0-30-13.431-30-30V103.323C0 89.981 16.659 81 30 81z"/></mask><path fill-rule="evenodd" clip-rule="evenodd" d="M30 81c28.166 0 51-22.834 51-51 0-13.341 8.981-30 22.323-30H550c16.569 0 30 13.431 30 30v266c0 16.569-13.431 30-30 30H30c-16.569 0-30-13.431-30-30V103.323C0 89.981 16.659 81 30 81z" fill="#fff"/><path d="M80 30c0 27.614-22.386 50-50 50v2c28.719 0 52-23.281 52-52h-2zm23.323-29H550v-2H103.323v2zM550 1c16.016 0 29 12.984 29 29h2c0-17.12-13.879-31-31-31v2zm29 29v266h2V30h-2zm0 266c0 16.016-12.984 29-29 29v2c17.121 0 31-13.879 31-31h-2zm-29 29H30v2h520v-2zm-520 0c-16.016 0-29-12.984-29-29h-2c0 17.121 13.88 31 31 31v-2zM1 296V103.323h-2V296h2zm0-192.677c0-6.217 3.88-11.528 9.554-15.334C16.223 84.185 23.53 82 30 82v-2c-6.87 0-14.564 2.305-20.56 6.328C3.45 90.347-1 96.198-1 103.323h2zM82 30c0-6.47 2.185-13.777 5.989-19.446C91.795 4.88 97.106 1 103.323 1v-2C96.198-1 90.347 3.45 86.328 9.44 82.305 15.436 80 23.13 80 30h2z" fill="#F0F0F0" mask="url(#a)"/></svg>