<svg width="111" height="42" fill="none" xmlns="http://www.w3.org/2000/svg"><g clip-path="url(#clip0_258_17)"><mask id="a" style="mask-type:luminance" maskUnits="userSpaceOnUse" x="-5" y="0" width="38" height="38"><path d="M32.721.587H-4.596v36.876H32.72V.587z" fill="#fff"/></mask><g mask="url(#a)" fill-rule="evenodd" clip-rule="evenodd"><path d="M21.82 25.389l-4.901 3.073-.494-1.53 3.522-1.83 2.975-1.526-.332 2.092-.77-.28zm.42-6.426c-.24.243-3.547 2.534-4.201 2.864-.319.16-.53-.38-.84-.21-.248.137-.515 1.149-.789 1.218l-.009-2.504 3.827-1.993 2.69-1.383.01 2.085c0 .047-.005.295-.016.326-.063.184-.444-.434-.672-.403zm-10.343 6.273L11.89 37.47l14.051-7.551c1.046-.823 1.424-2.077 1.685-3.349.26-1.267.378-5.27-.087-6.19-.29-.573-.629-.77-1.309-.929.35-.521.53-.514.983-1.394.228-.444.49-1.234.548-1.828.11-1.122.186-3.639-.13-4.326-.275-.326-.32-.484-.752-.713-1.074-.57-2.467-.081-3.47.417l-11.51 5.991-.002 7.637z" fill="#BCD400"/><path d="M2.78 29.57c-.307-.178-.18-.482-.197-.914.495.114 4.376 2.426 5.45 2.936l-.002.773-5.252-2.794zm-.167-4.947l5.425 2.971-.036.761-5.414-2.904.025-.828zm8.68 12.775l-.096-20.116-2.76-1.38c-.24-.15-.15-.144-.41-.159l-.037 8.35c-.198-.022-5.162-2.665-5.452-2.898v-8.257c.017-.012.058-.307.058-.307-.231-.051-2.525-1.327-2.698-1.493l-.035.099c-.111.544.044 19.396.044 19.805 2.328 1.229 4.719 2.7 7.025 3.958L9.8 36.608c.343.192 1.17.732 1.492.79z" fill="#E7EC82"/><path d="M-.103 11.14c.172.165 2.467 1.441 2.698 1.492.35-.336 3.509-1.584 4.272-1.959l3.79-1.656c.082-.035.217-.083.29-.119l.27-.201c-.267-.208-.711-.409-1.046-.499.118-.093-.111-.008.204-.122-.398.08-.409.094-.688-.15.477-.245 3.553-.403 4.362-.512l4.121-.377c.26.021.076-.022.194.051-.018.194 0 .079-.083.166-.014.013-.075.053-.087.062-.01.008-.044.043-.051.029-.009-.015-.038.016-.055.028h.296l-.302 4.572c-.237-.021-1.24-.6-1.502-.749-.623-.355-.456-.002-1.518.436-.34.282-1.334.766-1.789 1.037-.61.362-1.247.714-1.875 1.063-.55.424-2.622 1.437-3.196 1.84-.192.136-.067-.015-.177.173.26.015.17.01.41.159l2.76 1.38c.26-.245 10.563-5.725 11.406-6.2.907-.512 2.403-1.062 3.535-.81.6.134.651.34 1.005.543-.073-.327-.274-.507-.519-.696-1.265-.976-2.452-1.686-3.892-2.404-.27-.134-.579-.272-.837-.423-.683-.397-5.438-2.65-6.031-2.713-1.652-.175-3.376.66-4.849 1.365-.316.153-.535.246-.862.397L5.039 8.717c-.305.154-.578.256-.863.395L.746 10.72c-.264.133-.626.241-.849.42z" fill="#EAE958"/><path d="M10.376 8.075c-.316.114-.087.029-.204.122.335.09.78.291 1.045.499.139.118.074.028.095.277-.258.22-1.709.807-2.14 1-.704.317-1.423.615-2.131.952l-4.35 1.912-.154.101v8.257c.291.233 5.254 2.876 5.452 2.898l.037-8.35c.11-.187-.015-.036.177-.172.573-.403 2.647-1.417 3.196-1.84-.155-.177-.014.079-.077-.16-.068-.253.045-2.822.053-3.076.112.124.113.189.317.202-.315.302-.183.034-.163.138.521.109.313.113.84.073.009.014.013.04.016.048.003.007.011.035.015.043.117.228-.211-.02.088.1.211.084.511-.05.511-.05l1.08.46c.432-.064-.354-.099.238-.085l.355.1c.574.163.188-.126.391.106 1.062-.438.895-.79 1.518-.435.262.149 1.265.727 1.502.749l.302-4.572h-.296l-7.713.703z" fill="#B9D100"/><path d="M11.29 13.81a514.12 514.12 0 004.741-2.718c.454-.27 0 0 2.053.852.13-1.984.127-1.92.155-4.572-1.47.14-8.18.623-8.18.623 1.224.754 0 0 1.173.712.063.239.058 5.104.058 5.104zM2.537 21.2l5.452 2.898.017-4.014.004-.806.004-.995L2.537 21.2z" fill="#97BC00"/><path d="M2.589 25.455L6.66 27.66c.458.223.865.5 1.343.698l.036-.761-5.425-2.971-.025.828zm5.443 6.912l.003-.774c-1.075-.51-4.955-2.821-5.45-2.936l-.015.78 5.462 2.93z" fill="#A5C500"/><path d="M22.903 19.474c-.029-.01-2.672-1.136-2.672-1.136l-3.827 1.993.01 2.505 6.489-3.362z" fill="#707A00"/><path d="M20.229 18.338s2.678 1.152 2.672 1.136c.01-.03.028-.386.027-.433l-.01-2.085-2.69 1.382z" fill="#364A00"/><path d="M22.903 26.087c-.029-.01-2.672-1.136-2.672-1.136l-3.827 1.993.01 2.505 6.489-3.362z" fill="#707A00"/><path d="M20.229 24.95s2.678 1.15 2.672 1.136c.01-.032.028-.387.027-.435l-.01-2.085-2.69 1.383z" fill="#364A00"/><path d="M2.596 12.629c-.14.372-.164.145.095.206l4.35-1.912c.709-.337 1.427-.635 2.132-.952.431-.193 1.882-.78 2.14-1-.022-.25.043-.16-.095-.278l-.27.202c-.072.036-.207.084-.29.119l-3.79 1.656c-.763.374-3.921 1.622-4.272 1.959zm7.776-4.554l7.714-.703c.017-.013.046-.043.055-.029.007.015.04-.02.05-.028.013-.01.074-.05.087-.062.084-.088.066.028.084-.166-.119-.073.065-.03-.194-.05l-4.121.376c-.81.11-3.885.267-4.362.512.28.244.29.23.687.15z" fill="#F0F3B0"/></g><mask id="b" style="mask-type:luminance" maskUnits="userSpaceOnUse" x="34" y="6" width="65" height="26"><path d="M98.186 6.664H34.192v24.66h63.994V6.664z" fill="#fff"/></mask><g filter="url(#filter0_d_258_17)" fill-rule="evenodd" clip-rule="evenodd" fill="#333834" mask="url(#b)"><path d="M51.977 10.416v8.8c0 .428-.481.908-.91.908h-.7V9.368c.42 0 1.514-.015 1.585.615l.025.433zm-5.531 20.889c0-.015 3.648-.006 3.92-.006v-8.94h.21c.062.476.097.646.21 1.117l1.75 7.823c.07-.023.405-.004.77-.001h3.362c-.058-.687-2.45-8.891-2.45-9.428.215-.05.501-.24.681-.367.62-.437.998-1.38.998-2.217V9.857c0-.849-.43-1.712-.89-2.114-.487-.427-1.485-.614-2.4-.61-2.03.01-4.062 0-6.091 0-.058 8.105-.07 24.172-.07 24.172zm-6.652-9.78c0 .933.064 6.22-.057 6.718-.064.255-.082.264-.272.427-.402.345-.824.328-1.351.328V19.78c.529 0 1.288-.007 1.541.558.139.28.139.42.139 1.188zm0-10.616v5.588c0 .961-.618 1.117-1.68 1.117V9.373c.585 0 1.062.086 1.384.366.366.402.296.49.296 1.17zm-5.601-3.282v23.676h6.371c.33.004.997-.166 1.45-.37 1.525-.717 1.7-1.945 1.7-3.541 0-1.22.133-5.916-.18-6.805-.32-.916-1.678-1.517-2.625-1.571-.42-.023-.536.117-.625-.214 1.821 0 3.29-.77 3.29-2.724V10.21c0-1.919-1.232-2.979-3.08-3.074-1.964-.1-4.303.001-6.301.001v.489zM71.65 31.298l5.264-.002 2.998-24.163H76.06s-1.61 17.32-1.61 17.18L72.49 7.134h-3.85c.971 8.104 2.003 16.065 3.01 24.165zm21.402-10.173c.294.244 1.177.828 1.211 1.236l.002.976-.002 4.542c.002.411.159 1.09-.773 1.118-.613.02-.91-.312-.911-.905l.004-5.591h-3.85l.008 6.276c.054.509.131 1.267.551 1.616.42.28 1.062.557 1.61.698 1.192.306 5.902.27 6.582-.489.77-.698.63-2.838.63-4.33 0-1.642.006-4.845.004-4.962-.02-.888-.697-1.245-1.313-1.763l-1.649-1.429c-.575-.546-1.558-1.212-2.005-1.77-.526-.659-.498-.828-.498-1.949l.016-4.942c.07-.26.404-.436.824-.443.42.007.49.007.84.427l.014 5.326s3.375-.019 3.837-.019v-3.631c0-1.436-.07-2.305-.488-3.145a1.766 1.766 0 00-.94-.878c-1.267-.54-5.32-.573-6.597-.071-.474.186-.695.412-1.007.811-.35.559-.35.838-.35 3.143 0 .093-.07 5.797.1 6.256.231.66 3.272 3.085 4.15 3.892zM58.14 31.302h9.102v-2.305c0-.044-5.181 0-5.181 0v-9.149h5.11v-2.235h-5.11V9.372h5.11c0-2.62.005-2.235.005-2.235H58.21c-.055 8.104-.07 16.06-.07 24.165zm23.872-.004c-.022.06 3.921 0 3.921 0V7.133h-3.92v24.165z"/><path d="M89.378 30.403l-.083-.012v.07l.083-.058z"/></g></g><defs><clipPath id="clip0_258_17"><path fill="#fff" d="M0 0h111v42H0z"/></clipPath><filter id="filter0_d_258_17" x="34.193" y="6.667" width="65.465" height="26.499" filterUnits="userSpaceOnUse" color-interpolation-filters="sRGB"><feFlood flood-opacity="0" result="BackgroundImageFix"/><feColorMatrix in="SourceAlpha" values="0 0 0 0 0 0 0 0 0 0 0 0 0 0 0 0 0 0 127 0" result="hardAlpha"/><feOffset dx="1.474" dy="1.842"/><feComposite in2="hardAlpha" operator="out"/><feColorMatrix values="0 0 0 0 1 0 0 0 0 1 0 0 0 0 1 0 0 0 0.5 0"/><feBlend in2="BackgroundImageFix" result="effect1_dropShadow_258_17"/><feBlend in="SourceGraphic" in2="effect1_dropShadow_258_17" result="shape"/></filter></defs></svg>