<svg width="177" height="252" fill="none" xmlns="http://www.w3.org/2000/svg"><path fill-rule="evenodd" clip-rule="evenodd" d="M175.103 135.092L63.938-.544c-33.964 31.293-38.006 84.043-8.355 120.22 29.65 36.178 82.166 42.573 119.52 15.416zm16.4-126.707l-.105-.128.053.064.052.064z" fill="url(#paint0_linear_260_142)"/><path fill-rule="evenodd" clip-rule="evenodd" d="M116.342 63.394L251.978-47.772c-31.293-33.963-84.043-38.005-120.22-8.355-36.178 29.65-42.573 82.167-15.416 119.52zm126.667 16.432l.207-.17-.103.085-.104.085z" fill="url(#paint1_linear_260_142)"/><path fill-rule="evenodd" clip-rule="evenodd" d="M204.256-8.658l111.165 135.637c33.964-31.294 38.006-84.044 8.355-120.221-29.65-36.178-82.166-42.573-119.52-15.416zm-16.4 126.707l.105.128-.053-.064-.052-.064z" fill="url(#paint2_linear_260_142)"/><defs><linearGradient id="paint0_linear_260_142" x1="65.155" y1="-7.211" x2="168.22" y2="78.341" gradientUnits="userSpaceOnUse"><stop stop-color="#AFED15"/><stop offset="1" stop-color="#D7F886"/></linearGradient><linearGradient id="paint1_linear_260_142" x1="258.645" y1="-46.554" x2="173.093" y2="56.511" gradientUnits="userSpaceOnUse"><stop stop-color="#AFED15"/><stop offset="1" stop-color="#D7F886"/></linearGradient><linearGradient id="paint2_linear_260_142" x1="314.204" y1="133.645" x2="211.139" y2="48.093" gradientUnits="userSpaceOnUse"><stop stop-color="#AFED15"/><stop offset="1" stop-color="#D7F886"/></linearGradient></defs></svg>