<svg width="25" height="25" fill="none" xmlns="http://www.w3.org/2000/svg"><path d="M13.656.754c1.328.004 2.002.01 2.584.027l.229.009c.264.009.525.02.84.035 1.256.059 2.113.257 2.865.549.779.3 1.435.706 2.091 1.36.6.59 1.065 1.304 1.361 2.092.292.752.49 1.609.549 2.866.014.314.026.575.035.84l.008.23c.017.58.024 1.254.027 2.582v2.427c.004.86-.005 1.722-.026 2.582l-.007.23c-.01.265-.022.526-.036.84-.059 1.257-.26 2.113-.55 2.866a5.784 5.784 0 01-1.36 2.091 5.784 5.784 0 01-2.092 1.361c-.752.291-1.61.49-2.865.549l-.84.035-.23.007a96.2 96.2 0 01-2.583.027l-.88.002H11.23a92.342 92.342 0 01-2.583-.027l-.23-.008c-.28-.01-.56-.022-.84-.036-1.256-.06-2.113-.258-2.866-.549a5.783 5.783 0 01-2.09-1.36 5.785 5.785 0 01-1.362-2.093c-.292-.751-.49-1.608-.549-2.865l-.035-.84-.006-.23a93.241 93.241 0 01-.03-2.582v-2.427c-.003-.86.006-1.722.026-2.583l.009-.229c.009-.265.02-.526.035-.84.059-1.257.257-2.113.549-2.866a5.784 5.784 0 011.364-2.091 5.784 5.784 0 012.09-1.361c.752-.292 1.608-.49 2.865-.55.314-.013.576-.025.84-.034l.23-.008c.86-.02 1.721-.03 2.582-.027h2.427zm-1.213 5.902a5.902 5.902 0 100 11.803 5.902 5.902 0 000-11.803zm0 2.36a3.541 3.541 0 11-.002 7.083 3.541 3.541 0 01.003-7.083m6.196-4.13a1.476 1.476 0 100 2.95 1.476 1.476 0 000-2.95z" fill="#fff"/></svg>