<svg width="151" height="47" fill="none" xmlns="http://www.w3.org/2000/svg"><path fill-rule="evenodd" clip-rule="evenodd" d="M4.648 31.96C5.135 40.348 12.091 47 20.601 47s15.467-6.652 15.953-15.04H4.648z" fill="url(#paint0_linear_263_3264)"/><path fill-rule="evenodd" clip-rule="evenodd" d="M15.928 0C7.54.487.888 7.443.888 15.953s6.652 15.466 15.04 15.953V0z" fill="url(#paint1_linear_263_3264)"/><path fill-rule="evenodd" clip-rule="evenodd" d="M47.834 15.04C47.347 6.652 40.391 0 31.881 0S16.415 6.652 15.928 15.04h31.906z" fill="url(#paint2_linear_263_3264)"/><path fill-rule="evenodd" clip-rule="evenodd" d="M36.608 46.946c8.388-.487 15.04-7.443 15.04-15.953s-6.652-15.466-15.04-15.953v31.906z" fill="url(#paint3_linear_263_3264)"/><path d="M62.69 19.255c1.515.54 3.255.9 4.89.9 1.62 0 2.715-.465 2.715-1.23 0-.75-.75-1.05-3.06-1.365-3.135-.435-4.785-1.17-4.785-3.015 0-1.785 1.395-3.225 5.1-3.225 1.8 0 3.285.315 4.785.645v2.295a13.148 13.148 0 00-4.755-.915c-1.62 0-2.625.345-2.625 1.125 0 .75.735.9 3.06 1.245 3.24.48 4.785 1.29 4.785 3.135 0 1.785-1.545 3.345-5.25 3.345-1.8 0-3.36-.315-4.86-.645v-2.295zM82.445 11.5l1.485 8.475h.165l1.41-8.475h2.505L86.195 22h-4.14l-1.41-8.475h-.18L79.055 22h-4.14L73.1 11.5h2.505l1.41 8.475h.165l1.485-8.475h3.78zm6.16 0h2.43V22h-2.43V11.5zm9.49 10.5l-3.045-8.475h-.165V22H92.53V11.5h4.08l3.09 8.475h.165l3.09-8.475h4.065V22h-2.355v-8.475h-.165L101.455 22h-3.36zm15.996 0l-3.045-8.475h-.165V22h-2.355V11.5h4.08l3.09 8.475h.165l3.09-8.475h4.065V22h-2.355v-8.475h-.165L117.451 22h-3.36zm10.431-10.5h2.43V22h-2.43V11.5zm3.926 0h1.725l5.775 6.405V11.5h2.19V22h-1.725l-5.79-6.435V22h-2.175V11.5zm10.742 5.25c0-4.32 2.985-5.43 5.4-5.43 2.175 0 4.815.9 5.31 4.245h-2.49c-.3-1.74-1.47-2.22-2.82-2.22-1.62 0-2.97.69-2.97 3.405s1.35 3.405 2.97 3.405c1.725 0 2.52-.63 2.82-1.8h-2.715v-1.65h5.295V22h-2.16l-.135-1.545h-.15c-.75 1.305-1.995 1.725-3.48 1.725-1.89 0-4.875-1.11-4.875-5.43zm-76.89 15c0-4.32 2.985-5.43 5.4-5.43 2.175 0 4.815.9 5.31 4.245h-2.49c-.3-1.74-1.47-2.22-2.82-2.22-1.62 0-2.97.69-2.97 3.405s1.35 3.405 2.97 3.405c1.35 0 2.52-.48 2.82-2.22h2.49c-.495 3.345-3.135 4.245-5.31 4.245-2.415 0-5.4-1.11-5.4-5.43zm11.235 0c0-4.32 2.985-5.43 5.4-5.43 2.415 0 5.4 1.11 5.4 5.43 0 4.32-2.985 5.43-5.4 5.43-2.415 0-5.4-1.11-5.4-5.43zm2.43 0c0 2.715 1.35 3.405 2.97 3.405s2.97-.69 2.97-3.405-1.35-3.405-2.97-3.405-2.97.69-2.97 3.405zm16.347-5.25l4.02 10.5h-2.55l-.795-2.13h-5.31L86.882 37h-2.55l4.02-10.5h3.96zm-3.93 6.48h3.9l-1.65-4.455h-.6l-1.65 4.455zm7.946-1.23c0-4.32 2.985-5.43 5.4-5.43 2.175 0 4.815.9 5.31 4.245h-2.49c-.3-1.74-1.47-2.22-2.82-2.22-1.62 0-2.97.69-2.97 3.405s1.35 3.405 2.97 3.405c1.35 0 2.52-.48 2.82-2.22h2.49c-.495 3.345-3.135 4.245-5.31 4.245-2.415 0-5.4-1.11-5.4-5.43zm11.686-5.25h2.43v4.11h5.64V26.5h2.43V37h-2.43v-4.5h-5.64V37h-2.43V26.5z" fill="url(#paint4_linear_263_3264)"/><defs><linearGradient id="paint0_linear_263_3264" x1="3.851" y1="39.48" x2="25.074" y2="30.74" gradientUnits="userSpaceOnUse"><stop stop-color="#0039C6"/><stop offset="1" stop-color="#4178FF"/></linearGradient><linearGradient id="paint1_linear_263_3264" x1="8.408" y1="-.798" x2="17.148" y2="20.426" gradientUnits="userSpaceOnUse"><stop stop-color="#0039C6"/><stop offset="1" stop-color="#4178FF"/></linearGradient><linearGradient id="paint2_linear_263_3264" x1="48.632" y1="7.52" x2="27.408" y2="16.26" gradientUnits="userSpaceOnUse"><stop stop-color="#0039C6"/><stop offset="1" stop-color="#4178FF"/></linearGradient><linearGradient id="paint3_linear_263_3264" x1="44.128" y1="47.743" x2="35.389" y2="26.52" gradientUnits="userSpaceOnUse"><stop stop-color="#0039C6"/><stop offset="1" stop-color="#4178FF"/></linearGradient><linearGradient id="paint4_linear_263_3264" x1="59.775" y1="23" x2="111.772" y2="-6.944" gradientUnits="userSpaceOnUse"><stop stop-color="#0039C6"/><stop offset="1" stop-color="#4178FF"/></linearGradient></defs></svg>