<svg width="65" height="60" fill="none" xmlns="http://www.w3.org/2000/svg"><path fill-rule="evenodd" clip-rule="evenodd" d="M4.78 40.634C5.4 51.3 14.244 59.756 25.064 59.756c10.82 0 19.664-8.457 20.283-19.122H4.78z" fill="url(#paint0_linear_142_85)"/><path fill-rule="evenodd" clip-rule="evenodd" d="M19.122 0C8.457.62 0 9.463 0 20.283c0 10.82 8.457 19.663 19.122 20.282V0z" fill="url(#paint1_linear_142_85)"/><path fill-rule="evenodd" clip-rule="evenodd" d="M59.687 19.122C59.07 8.457 50.224 0 39.405 0 28.585 0 19.74 8.457 19.122 19.122h40.565z" fill="url(#paint2_linear_142_85)"/><path fill-rule="evenodd" clip-rule="evenodd" d="M45.415 59.687c10.664-.619 19.122-9.463 19.122-20.282 0-10.82-8.458-19.664-19.122-20.283v40.565z" fill="url(#paint3_linear_142_85)"/><defs><linearGradient id="paint0_linear_142_85" x1="3.767" y1="50.195" x2="30.75" y2="39.083" gradientUnits="userSpaceOnUse"><stop stop-color="#0039C6"/><stop offset="1" stop-color="#4178FF"/></linearGradient><linearGradient id="paint1_linear_142_85" x1="9.561" y1="-1.014" x2="20.673" y2="25.97" gradientUnits="userSpaceOnUse"><stop stop-color="#0039C6"/><stop offset="1" stop-color="#4178FF"/></linearGradient><linearGradient id="paint2_linear_142_85" x1="60.701" y1="9.561" x2="33.718" y2="20.673" gradientUnits="userSpaceOnUse"><stop stop-color="#0039C6"/><stop offset="1" stop-color="#4178FF"/></linearGradient><linearGradient id="paint3_linear_142_85" x1="54.976" y1="60.701" x2="43.864" y2="33.718" gradientUnits="userSpaceOnUse"><stop stop-color="#0039C6"/><stop offset="1" stop-color="#4178FF"/></linearGradient></defs></svg>