<svg width="31" height="19" fill="none" xmlns="http://www.w3.org/2000/svg"><path d="M29.282 18.294h-3.296c-1.246 0-1.621-1-3.855-3.213-1.953-1.864-2.777-2.095-3.271-2.095-.683 0-.87.185-.87 1.116v2.935c0 .793-.26 1.258-2.354 1.258a12.943 12.943 0 01-5.748-1.783 12.794 12.794 0 01-4.296-4.18A25.888 25.888 0 01.393 1.524c0-.489.188-.932 1.13-.932h3.292c.846 0 1.151.373 1.483 1.236 1.599 4.658 4.327 8.711 5.435 8.711.424 0 .61-.186.61-1.234v-4.8c-.14-2.188-1.315-2.373-1.315-3.165a.802.802 0 01.27-.544.818.818 0 01.575-.204h5.176c.707 0 .941.349.941 1.187v6.478c0 .699.304.93.517.93.425 0 .751-.231 1.53-1a26.774 26.774 0 004.046-6.664 1.42 1.42 0 011.434-.929h3.294c.988 0 1.198.489.988 1.186a40.612 40.612 0 01-4.422 7.525c-.355.536-.497.815 0 1.444.326.49 1.482 1.444 2.257 2.352a14.521 14.521 0 012.776 3.818c.283.91-.188 1.375-1.128 1.375z" fill="#fff"/></svg>